<?xml version="1.0"?><svg width="640" height="480" xmlns="http://www.w3.org/2000/svg">
 <title>blacknwhite crown</title>

 <metadata id="metadata2401">image/svg+xmlCrown with cross on the topcrown religious cross king</metadata>
 <g>
  <title>Layer 1</title>
  <path id="path16" fill="#000000" fill-rule="evenodd" transform="rotate(-0.098381, 321.285, 316.271)" d="m461.756012,279.119019c-34.700012,-10.895996 -70.109009,-16.072021 -105.85202,-18.642029c9.891998,-20.098984 -0.078003,-37.277985 -19.196991,-43.335983l-0.908997,-9.013l8.315002,0l7.621979,6.235001c12.896027,-12.101013 10.994019,-23.598999 -1.037994,-34.664001l-3.464996,5.546997l-9.359985,0.339996l0,-4.501007l5.886993,-6.932983c-14.850006,-7.38501 -30.218018,-7.499008 -46.105011,-0.340012l8.31601,4.850998l3.118011,7.279999l-9.701019,0l-6.583008,-5.199997c-10.673981,10.632004 -10.441986,23.344009 0.689026,38.138l5.800995,-9.957993l8.061981,0.255997l-0.561981,8.231003c-23.222015,10.425003 -28.237,25.013 -15.036011,43.767975c-38.938995,1.329041 -76.024002,8.844025 -111.852997,20.583008c-14.175995,-15.631989 -29.522003,-11.78299 -41.362,-35.212982c2.458008,28.563995 -6.625992,36.845001 -5.807999,54.237c-13.244995,6.10199 -24.934998,14.800995 -35.062004,26.100006c-18.905998,-17.570007 -35.779793,-23.962006 -52.597,-29.998016c14.544601,21.299011 22.073303,43.369995 33.116005,65.059998c-1.228699,9.154022 1.747002,16.035004 14.027,17.919006l31.551994,46.75c-3.763,9.610016 0.910004,18.179993 10.518005,19.480011l13.244995,17.919006c54.542007,-8.479004 109.483002,-15.013 164.024994,-15.319c63.106995,-0.34201 124.277008,5.53299 188.946014,13.36499l12.463013,-20.644012c10.255005,-0.645996 16.618958,-9.346985 11.291992,-19.86499l30.771973,-45.57901c14.41803,-0.647003 16.236023,-7.138 14.027039,-20.255005l28.435974,-62.332977c-16.099976,11.817993 -35.716003,16.229004 -48.307983,28.436981c-9.898987,-10.128998 -21.653015,-17.790009 -34.671021,-23.764008c1.819031,-23.498962 -7.271973,-32.588989 -7.398987,-51.814987c-13.565002,18.358994 -20.511993,7.889999 -45.373993,32.880997l0.013,-0.004974zm14.971985,87.968994c5.019012,-7.429016 -0.007996,-8.174011 -4.381989,-3.707001c-13.877014,19.573975 -8.473999,33.030975 12.817993,40.153992c29.195984,3.606995 37.512024,-8.997009 45.182007,-22.610992c2.932983,-5.696014 0.76001,-9.149017 -3.359009,-1.684021c-9.013,9.027008 -7.513977,16.881012 -26.77301,19.835022c4.296021,-12.606018 6.838013,-34.281006 22.562012,-57.623016c4.822021,-6.798004 10.617981,-6.213989 16.405029,-5.959991c-8.835022,-9.40799 -20.51001,-16.759003 -32.988037,-23.541992l-4.098022,6.753967c18.352051,2.15802 24.877014,13.699036 12.414001,32.838013c-5.717957,17.136993 -30.053986,30.744995 -29.677979,46.595001c-13.713989,-5.070007 -15.993988,-13.463989 -8.096008,-31.033997l-0.006989,-0.014984zm-121.725983,-86.642029c1.732971,5.93103 0.474976,11.910034 -3.77301,17.939026c27.158997,-10.494995 48.5,-2.507019 48.621002,23.891998c-0.987,18.925995 -24.56601,36.998993 -18.720001,62.246979c-20.888,-2.514984 -26.78302,-11.504974 -25.681,-33.556976c-3.75,-10.404022 -15.85202,-7.264008 -12.05899,8.606995c8.073975,35.886993 56.543976,47.186005 88.403992,21.596985c7.087006,-5.80899 11.165009,-12.854004 12.227997,-21.141998c0.05899,-10.082977 -7.932007,-8.804993 -11.468018,4.596008c-3.53598,13.401001 -13.060974,22.085999 -32.377991,23.095001c9.666016,-17.243011 3.29599,-34.246002 4.950012,-51.368011c5.242004,-26.894989 30.005981,-44.442993 51.496002,-29.542969l0.497986,-12.407043c-29.915009,-9.97998 -71.182983,-14.302979 -102.117981,-13.962982l0,0.006989zm-65.075012,-0.680969c-1.640991,5.95697 -0.291992,11.916992 4.048004,17.881989c-27.313019,-10.084991 -48.533997,-1.769012 -48.243011,24.630005c1.270996,18.91098 23.088013,39.427979 17.626007,64.768005c20.843994,-2.834015 30.006012,-16.470001 28.592987,-36.417999c3.593018,-10.461029 12.968018,-7.117004 10.794006,8.095978c-7.519989,35.998016 -55.812988,48.037018 -88.061996,22.938995c-7.173004,-5.695984 -11.362991,-12.684998 -12.548996,-20.951996c-0.214005,-10.076996 7.804993,-8.925995 11.539993,4.417999c1.356003,15.263 13.393005,21.888 32.724991,22.606018c-9.935974,-17.095001 -3.819977,-34.188995 -5.730988,-51.282013c-5.652008,-26.80899 -25.744003,-38.860992 -51.942001,-28.756012l-0.688995,-12.399963c36.332001,-9.814026 70.705002,-15.119019 101.897995,-15.517029l-0.007996,-0.013977zm-118.770996,89.751984c-2.067001,-6.690002 0.992996,-7.924988 4.381989,-3.707001c13.059006,19.161011 4.936005,31.255005 -12.819992,40.147003c-29.195999,3.609009 -38.548004,-8.651001 -46.225998,-22.264008c-2.932999,-5.695984 -0.411011,-9.147003 3.707001,-1.68399c9.011993,9.027008 6.477997,19.658997 34.748993,22.264008c-19.899002,-18.848022 -14.117004,-37.056 -29.848999,-60.400024c-4.822006,-6.796997 -10.615997,-6.213989 -16.404999,-5.951996c10.483002,-8.862976 21.638992,-16.389984 32.988998,-23.541992l3.408997,5.360992c-18.35199,4.58902 -24.181992,15.085022 -11.718994,34.223022c5.718002,17.138 30.056,30.746002 29.679993,46.602997c10.936005,-4.729004 15.992004,-13.46402 8.096008,-31.033997"/>
  <path id="path18" fill="#ffffff" fill-rule="evenodd" transform="rotate(0.579109, 322.547, 315.904)" d="m136.740005,307.416992l-38.123009,26.653015l3.707001,5.05899l38.123009,-27.662994l-3.707001,-4.049011zm374.139999,-1.909973c12.477966,4.267975 24.033997,11.782959 34.671021,22.534973l-4.154053,4.501007c-10.97998,-11.14798 -21.951965,-17.852997 -32.930969,-22.53299l2.421997,-4.502991l-0.007996,0zm-160.175995,-39.529022l1.037994,8.31601l4.501984,0.34198c35.005005,0.744995 70.046997,5.134033 102.281006,16.988007l1.726013,-5.199982c-33.485992,-11.369995 -70.529022,-17.406006 -109.559998,-20.453003l0.013,0.006989zm-167.036011,21.873016c30.595001,-11.050018 68.412994,-17.718994 109.285004,-21.929016c0.987,3.117981 1.653992,5.276001 0.078003,8.401001c-37.192017,1.945007 -71.891998,8.061005 -107.381012,18.572021l-1.988998,-5.044006l0.007004,0zm115.029999,-29.5l22.881989,-27.386017l23.919006,28.430023c14.105011,-14.147018 4.701019,-36.929016 -23.919006,-36.396027c-26.126984,1.363007 -36.353973,19.578003 -22.881989,35.359009l0,-0.006989zm-5.197998,-66.914017l4.848999,2.294006l17.677002,0.126999l-0.688995,-11.44101l-5.972015,-5.580994c6.456024,-3.61499 17.06601,-2.953995 25.609009,-0.341995l-5.76001,5.931l-0.040985,11.440994l13.563995,0.084991l7.278015,-4.935989c3.635986,6.527008 3.635986,12.535995 0,18.024994l-5.198029,-3.465988l-15.595001,0.339996l0,7.279999l2.074005,7.968002l-18.026001,0.341995l2.770996,-15.595001l-17.677979,0.686996l-4.850006,3.460007c-2.591003,-6.065002 -2.591003,-11.612 0,-16.640991l-0.013,0.021988l0,0l0,0l0,0l0,0l0,0l0,0l0,0l0,0zm-147.826004,78.248001c15.730011,9.765015 37.803009,11.187012 39.740997,47.199005c26.093002,-18.670013 41.774002,1.392975 48.314011,18.231995c4.773987,12.285004 -3.458008,27.212006 4.339996,48.339996c-10.432999,-1.817993 -16.889008,-8.940979 -19.373993,-21.362c-5.625,-20.692993 -28.485001,-15.565979 -21.362015,6.455994c15.063004,28.535004 41.531998,34.203003 65.209,31.58902c26.007019,-2.869019 48.670013,-20.539001 46.56601,-49.471008c-7.115997,-15.062988 -14.898987,-15.566986 -23.348999,-1.484009c-4.966003,10.432007 2.477997,27.320007 -14.901001,31.298004c1.15799,-20.199005 -20.532013,-40.402985 -20.368011,-56.139984c3.636017,-26.746002 23.016998,-29.893005 53.158997,-16.888031c-16.562988,-33.037964 3.968018,-51.418976 18.875,-67.070984c15.89502,17.223022 31.958008,31.794983 18.877014,66.572998c35.652008,-19.316986 62.105011,1.952026 52.526001,21.53302c-7.804993,15.957001 -21.645996,40.500977 -19.239014,51.985992c-26.164001,-5.128998 0.326019,-40.574005 -27.817993,-40.738007c-19.536987,4.802002 -15.39801,31.298004 6.455994,48.194c12.25,9.268005 27.156006,13.243988 44.71402,11.916992c21.537994,-0.376007 38.369995,-13.345001 51.968994,-34.927002c4.723999,-13.954987 -11.567993,-22.733002 -18.200989,-10.382996c-4.559021,15.774017 -11.392029,26.425995 -24.047028,29.606995c4.687012,-16.823975 1.620026,-37.020996 4.958008,-53.510986c10.488007,-23.365997 26.382019,-28.742004 47.673004,-16.115021c2.011017,-38.641968 28.678986,-39.173981 41.334015,-53.718994c2.429016,18.869995 16.631958,28.770996 -9.517029,59.968994c20.66803,2.720032 29.52301,12.754028 12.394043,38.883026c-6.620056,11.135986 -18.30304,19.914001 -23.914032,31.388977c-11.014008,-11.447998 1.578003,-16.816986 2.373016,-25.232971c2.372986,-13.77002 -13.799011,-11.795013 -22.215027,7.946991c-2.883972,22.847992 6.656006,37.833008 43.528015,35.510986c14.317993,-5.148987 24.984009,-13.587006 30.310974,-26.830994c2.429016,-7.399994 -0.867004,-11.769012 -7.882996,-9.049011c-7.294006,7.791016 -16.625977,25.042023 -21.901978,23.393005c3.416016,-11.382996 8.513977,-23.441986 11.937012,-34.826996c7.151978,-20.701996 17.294006,-26.459991 30.432983,-17.278992c3.315979,-17.34201 21.218994,-26.28299 33.505005,-31.858002l-19.208984,42.213989c-17.358032,-2.656006 -17.216003,11.27002 -13.558044,18.740997l-30.217957,46.453003c-15.845032,2.138 -21.760986,10.404999 -11.776001,18.841003l-6.612,16.43399c-117.40802,-24.763977 -234.183014,-24.912994 -350.264008,1.981018l-9.437012,-13.40799c12.746002,-9.601013 5.460999,-20.531006 -9.440002,-20.864014l-32.290993,-45.212006c9.025002,-9.317993 1.526001,-21.681 -14.403,-19.869995c-6.414001,-14.075012 -8.784599,-25.46701 -19.253098,-42.242981c16.895096,4.794983 32.007095,14.751984 35.643097,32.803986c9.269005,-11.752014 19.211998,-7.612 29.808006,12.412994c4.800995,12.911987 3.869995,23.473999 14.403,38.748993c-14.901001,-3.30899 -15.894012,-15.567993 -23.841003,-23.350983c-5.796005,-5.298004 -14.076996,0.326996 -8.445007,9.438995c22.272003,32.127991 56.886002,37.427002 73.525009,5.462006c3.806992,-14.403015 -0.993011,-25.503998 -14.403,-33.287018c-8.939011,0 -10.432007,6.455994 -5.958008,14.899017c4.630997,6.455994 7.776001,10.929993 1.98201,20.865997c-12.008011,-20.468018 -23.69101,-26.959015 -29.807007,-37.825012c-10.182999,-18.109985 -7.684006,-30.423981 17.882004,-32.221985c-23.264008,-24.422028 -12.99501,-35.35202 -9.436996,-54.151031l0.006989,0.007019zm326.181015,59.195007c5.710999,1.263 8.899994,5.462006 7.093994,9.345001c-1.803009,3.877991 -7.938995,6.015991 -13.654999,4.751984c-5.710999,-1.264984 -8.899994,-5.460999 -7.096008,-9.338989c1.804993,-3.877991 7.93399,-6.015991 13.649994,-4.751007l0.007019,-0.006989zm1.513,-4.069c8.557983,1.945984 13.336975,8.408997 10.631989,14.380981c-2.700012,5.973022 -11.895996,9.259003 -20.460999,7.314026c-8.557007,-1.945007 -13.337006,-8.40802 -10.631989,-14.381012c2.699982,-5.971985 11.895996,-9.260986 20.453979,-7.313995l0.007019,0zm83.113007,34.238007c4.268982,0 7.755981,2.953979 7.755981,6.575989c0,3.621002 -3.487,6.575989 -7.755981,6.575989c-4.268005,0 -7.756042,-2.954987 -7.756042,-6.575989c0,-3.622009 3.488037,-6.575989 7.756042,-6.575989zm-42.85199,65.455994c4.266968,0 7.753967,2.95401 7.753967,6.578003c0,3.621002 -3.487,6.575989 -7.753967,6.575989c-4.269043,0 -7.756042,-2.954987 -7.756042,-6.575989c0,-3.623993 3.487,-6.578003 7.756042,-6.578003zm-73.554016,-19.003998c7.619995,0.681 13.833984,6.548004 13.833984,13.04599c0,6.505005 -6.213989,11.25 -13.833984,10.569c-7.614014,-0.682007 -13.828003,-6.549011 -13.828003,-13.053986c0,-6.498016 6.213989,-11.25 13.828003,-10.561005zm-0.363007,3.828003c5.326996,0.47699 9.673981,4.579987 9.673981,9.125c0,4.54599 -4.346985,7.863983 -9.673981,7.386993c-5.325012,-0.476013 -9.673004,-4.580994 -9.673004,-9.127014c0,-4.544983 4.347992,-7.860992 9.673004,-7.384979zm-116.045013,-98.532013c10.220001,0 18.550018,6.059998 18.550018,13.493988c0,7.429016 -8.330017,13.494019 -18.550018,13.494019c-10.218994,0 -18.557007,-6.058014 -18.557007,-13.494019c0,-7.428986 8.338013,-13.493988 18.557007,-13.493988zm-0.510986,3.367004c7.705994,0 13.997986,4.395996 13.997986,9.786987c0,5.383026 -6.285004,9.779999 -13.997986,9.779999c-7.705017,0 -13.997009,-4.396973 -13.997009,-9.779999c0,-5.390991 6.285004,-9.786987 13.997009,-9.786987zm0.17099,81.657013c9.105011,0 16.533997,5.602997 16.533997,12.477997c0,6.875977 -7.423004,12.479004 -16.533997,12.479004c-9.105011,0 -16.53299,-5.603027 -16.53299,-12.479004c0,-6.875 7.42099,-12.477997 16.53299,-12.477997zm-0.341003,4.048981c6.313995,0 11.470001,4.011993 11.470001,8.94101c0,4.921997 -5.148987,8.941986 -11.470001,8.941986c-6.312988,0 -11.468994,-4.013 -11.468994,-8.941986c0,-4.92099 5.148987,-8.94101 11.468994,-8.94101zm-144.408997,-70.514008c6.128998,0 11.136002,3.785004 11.136002,8.429016c0,4.644989 -5,8.429993 -11.136002,8.429993c-6.12999,0 -11.12999,-3.785004 -11.12999,-8.429993c0,-4.644012 5,-8.429016 11.12999,-8.429016zm0.503998,-3.069c8.643005,0 15.688004,5.335022 15.688004,11.881012c0,6.541992 -7.044998,11.881989 -15.688004,11.881989c-8.635986,0 -15.687988,-5.332977 -15.687988,-11.881989c0,-6.539001 7.044998,-11.881012 15.687988,-11.881012zm28.173004,80.301025c7.805008,0 14.167999,5.340973 14.167999,11.880981c0,6.541016 -6.362991,11.881012 -14.167999,11.881012c-7.804993,0 -14.167999,-5.332001 -14.167999,-11.881012c0,-6.540009 6.363007,-11.880981 14.167999,-11.880981zm0.171005,4.082977c5.481003,0 9.947998,3.558014 9.947998,7.925018c0,4.362 -4.466995,7.927002 -9.947998,7.927002c-5.475998,0 -9.949997,-3.558014 -9.949997,-7.927002c0,-4.367004 4.466995,-7.925018 9.949997,-7.925018zm-73.050003,18.337006c4.268005,0 7.755005,2.769012 7.755005,6.178009c0,3.403992 -3.479004,6.179993 -7.755005,6.179993c-4.268997,0 -7.755997,-2.770996 -7.755997,-6.179993c0,-3.401001 3.487,-6.178009 7.755997,-6.178009zm-45.046997,-67.822998c3.990997,0 7.250999,3.153992 7.250999,7.024994c0,3.871002 -3.260002,7.02301 -7.250999,7.02301c-3.992004,0 -7.252007,-3.152008 -7.252007,-7.02301c0,-3.871002 3.260002,-7.024994 7.252007,-7.024994"/>
 </g>
</svg>